# xmcd CD database file
# Copyright (C) 1995-1998 Ti Kan
#
# Track frame offsets:
#	150
#	10125
#	19317
#	31915
#	43180
#	53767
#	64435
#	75810
#	90717
#	99992
#	114827
#	126112
#	136717
#	149572
#	161915
#	171927
#
# Disc length: 2461 seconds
#
# Revision: 1
# Processed by: cddbd v1.5.2PL0 Copyright (c) Steve Scherf et al.
# Submitted via: CDex 1.30Release
#
DISCID=ce099b10
DTITLE=Jerry Reed - Country Legends
DYEAR=2001
DGENRE=Country
TTITLE0=Are you From Dixie (Cause I'm From Dixie Too)
TTITLE1=The Claw
TTITLE2=Tupelo Mississippi Flash
TTITLE3=Talk About The Good Times
TTITLE4=The Likes Of Me
TTITLE5=Amos Moses
TTITLE6=U.S. Male
TTITLE7=Lord, Mr. Ford
TTITLE8=Navy Blues
TTITLE9=She Got The Goldmine (I Got The Shaft)
TTITLE10=Guitar Man
TTITLE11=When You're Hot, You're Hot
TTITLE12=Remembering
TTITLE13=Alabama Wild Man
TTITLE14=Nervous Breakdown
TTITLE15=East Bound And Down
EXTD=ID3G:   2
EXTT0=
EXTT1=
EXTT2=
EXTT3=
EXTT4=
EXTT5=
EXTT6=
EXTT7=
EXTT8=
EXTT9=
EXTT10=
EXTT11=
EXTT12=
EXTT13=
EXTT14=
EXTT15=
PLAYORDER=
